<svg xmlns="http://www.w3.org/2000/svg" width="283.673" height="207.64" viewBox="0 0 283.673 207.64">
  <defs>
    <style>
      .cls-1, .cls-2 {
        fill: none;
        stroke: #000;
        stroke-linecap: round;
        stroke-miterlimit: 10;
        stroke-width: 5px;
      }

      .cls-1 {
        stroke-linejoin: round;
      }
    </style>
  </defs>
  <g id="Group_5" data-name="Group 5" transform="translate(-1161.396 -338.784) rotate(7)">
    <path id="Path_5" data-name="Path 5" class="cls-1" d="M1223.645,216.981h-4.183c20.527-.09,41.3-3.842,61.59-6.752,30.081-4.48,58.455-11.573,88.012-13.938,1.182,0,3.547-1.182,5-1.887-11.615,2.33-4.1,2.229,0,0-11.615,2.33-27.008-.251-36.1,8.938-7.261,7.338-9,19.075-9.753,28.905-2.226,29.182,2.425,59.477,6.534,88.285,2.789,19.543,6.1,39.005,9.36,58.474" transform="translate(0 0)"/>
    <path id="Path_6" data-name="Path 6" class="cls-1" d="M1329,285.942c7.046-1.108,17.354-8.83,15.092-16.675-3.222-11.171-16.236,3.774-9.989,11.929,8.386,10.944,20.138,4.156,27.521-4.073,3.735-4.162,15.464-23.765.244-23.167-7.619,9.274,3.734,16.705,9.686,22.527,1.225,1.2,6.737,5.3,7.09,7.077.891,4.467-9.556,8.644-12.279,5.074-4.845-6.351,9.717-20.04,12.939-24.088,4.291-5.389,14.084-11.631,15.669-18.416-5.129-4.08-7.142,5.479-6.539,8.629.759,3.965,4.047,7.146,6.682,9.9,2.07,2.162,8.736,6.145,8.827,9.446.08,2.888-5.833,7.455-8.491,6.921-1.208-8.738,26.815-32.638,22.573-36.866-7.984,2.047-17.688,17.844-8.332,24.114,5.314-.624,9.7-5.336,12.613-9.522,2.135-3.068,1.868-7.637,5.539-9.576,1.37,6.21,1.351,12.393,6.5,16.82,8.744,7.518,14.386-1.232,19.977-8.426" transform="translate(19.966 9.069)"/>
    <path id="Path_7" data-name="Path 7" class="cls-2" d="M1449,270.5" transform="translate(41.838 13.87)"/>
  </g>
</svg>
